<?xml version="1.0" encoding="utf-8"?>
<!-- Generator: Adobe Illustrator 16.0.0, SVG Export Plug-In . SVG Version: 6.00 Build 0)  -->
<!DOCTYPE svg PUBLIC "-//W3C//DTD SVG 1.1//EN" "http://www.w3.org/Graphics/SVG/1.1/DTD/svg11.dtd">

<svg version="1.1" class="benefit__icon" xmlns="http://www.w3.org/2000/svg" xmlns:xlink="http://www.w3.org/1999/xlink" width="80px" height="80px" viewBox="0 0 512 512" xml:space="preserve">
	<path class="st0" fill="#ff4e00" d="M79.995,0.001l89.365,180.632c13.648-7.675,28.415-13.595,43.997-17.449L294.09,0.001h40.949l-78.626,158.007
		c31.326,0.073,60.734,8.287,86.236,22.633l89.369-180.64h40.988l-100.43,201.825c37.031,32.442,60.42,80.075,60.42,133.174
		c0,97.756-79.246,177-177.001,177c-97.754,0-177-79.244-177-177c0-53.104,23.39-100.739,60.428-133.178L38.995,0.001H79.995z
		 M117.995,335c0,76.768,62.232,139,139,139c76.769,0,139.001-62.232,139.001-139s-62.232-138.999-139.001-138.999
		C180.228,196.001,117.995,258.232,117.995,335z M249.661,253.001h24.458V413h-30.144V297.893
		c-11.014,10.434-23.994,18.152-38.939,23.152v-27.719c7.866-2.607,16.413-7.555,25.638-14.836
		C239.899,271.207,246.228,262.711,249.661,253.001z M176.995,0.001h41l22,45l-19,41L176.995,0.001z"></path>
</svg>
