<?xml version="1.0" encoding="utf-8"?>
<!-- Generator: Adobe Illustrator 16.0.0, SVG Export Plug-In . SVG Version: 6.00 Build 0)  -->
<!DOCTYPE svg PUBLIC "-//W3C//DTD SVG 1.1//EN" "http://www.w3.org/Graphics/SVG/1.1/DTD/svg11.dtd">

<svg version="1.1" class="benefit__icon" xmlns="http://www.w3.org/2000/svg" xmlns:xlink="http://www.w3.org/1999/xlink" width="80px" height="80px" viewBox="0 0 512 512" xml:space="preserve">
                            <path class="st0" fill="#ff4e00" d="M491.115,305.057c0,29.86-15.931,56.386-40.631,73.498
                            c2.093,6.322,3.242,13.022,3.242,19.972c0,37.856-33.48,68.545-74.775,68.545c-1.789,0-3.535-0.134-5.287-0.243
                            c-11.271,25.643-39.487,43.862-72.604,43.862c-17.581,0-33.726-5.185-46.735-13.845c-13.007,8.66-29.155,13.845-46.735,13.845
                            c-33.487,0-61.958-18.633-72.963-44.731c-45.28-5.674-79.705-33.672-79.705-67.433c0-6.767,1.436-13.29,4.01-19.467
                            c-25.134-17.088-41.398-43.838-41.398-74.003c0-20.216,7.348-38.879,19.71-54.171c-12.329-19.701-19.71-44.024-19.71-70.455
                            c0-59.983,37.595-109.42,86.311-117.203c18.64-37.543,58.023-63.506,103.746-63.506c16.652,0,32.44,3.505,46.735,9.688
                            c14.294-6.183,30.085-9.688,46.735-9.688c46.838,0,87.068,27.226,105.109,66.26c48.769,13.871,84.945,63.956,84.945,123.795
                            c0,24.11-5.976,46.577-16.169,65.819C485.135,269.95,491.115,286.867,491.115,305.057z M235.631,52.192
                            c-10.181-5.596-21.828-8.851-34.272-8.851c-31.975,0-59.037,20.952-68.262,49.869c-0.094,0-0.188-0.019-0.283-0.019
                            c-39.578,0-71.66,39.059-71.66,87.239c0,15.9,3.55,30.76,9.654,43.598c15.523-7.872,33.469-12.442,52.659-12.442
                            c14.304,0,27.871,2.626,40.312,7.168c8.645,1.646,15.187,9.219,15.187,18.342c0,10.323-8.371,18.693-18.694,18.693
                            c-3.13,0-6.04-0.843-8.632-2.203c-7.723-2.927-16.156-4.613-25.056-4.613c-36.135,0-65.429,26.508-65.429,59.198
                            c0,26.654,19.479,49.182,46.253,56.605c-5.54,6.791-8.866,15.226-8.866,24.402c0,22.369,19.528,40.504,43.619,40.504
                            c7.023,0,13.638-1.576,19.516-4.32c-0.517,2.416-0.821,4.893-0.821,7.436c0,22.37,20.924,40.503,46.735,40.503
                            c9.133,0,17.628-2.306,24.828-6.23l3.212-2.972V52.192z M375.617,93.377c-9.178-29.006-36.286-50.036-68.326-50.036
                            c-12.443,0-24.091,3.255-34.272,8.851v411.08l3.214,3.799c7.199,3.925,15.693,6.23,24.828,6.23c15.64,0,29.453-6.682,37.935-16.904
                            c-20.908-12.159-34.819-33.499-34.819-57.871c0-0.742,0.073-1.473,0.121-2.203c-0.023-0.407-0.121-0.791-0.121-1.205
                            c0-12.207,9.895-22.101,22.102-22.101c12.056,0,21.816,9.662,22.059,21.657c0.03,0,0.062,0,0.092,0
                            c2.678,18.334,15.779,32.283,31.626,32.283c17.78,0,32.196-17.526,32.196-39.142c0-9.231-2.738-17.604-7.138-24.299
                            c24.749-8.439,42.384-30,42.384-55.346c0-5.354-0.857-10.515-2.331-15.449c-18.571,15.516-41.416,24.797-66.214,24.797
                            c-6.194,0-12.256-0.633-18.176-1.74v-0.231c-0.092,0-0.178,0.024-0.274,0.024c-10.46,0-18.938-8.478-18.938-18.938
                            c0-10.455,8.478-18.938,18.938-18.938c0.097,0,0.183,0.024,0.274,0.024v-0.268c3.827,0.663,7.703,1.12,11.684,1.12
                            c43.734,0,79.193-41.5,79.193-92.692C451.652,135.938,417.873,95.331,375.617,93.377z M409.957,216.866
                            c-45.166,0-87.963-32.918-93.415-67.817c-1.181-8.903-7.541-27.143,9.382-33.584c16.041-6.104,23.459,9.198,23.459,9.198
                            c14.435,54.205,59.09,52.121,59.09,52.121c10.66,0.073,19.021,5.781,20.512,16.555C431.998,215.049,410.006,217.033,409.957,216.866
                            z M145.277,174.199c-8.586,0-28.236-0.786-28.236-18.889c0-17.167,16.552-18.697,16.552-18.697
                            c20.121-1.385,37.321-13.361,46.051-30.396l0.459,0.164c2.753-7.025,9.554-12.022,17.557-12.022
                            c10.433,0,18.889,8.459,18.889,18.889c0,4.114-0.593,5.872-0.593,5.872C210.512,150.326,180.985,174.199,145.277,174.199z
                             M180.411,411.026c-17.079,1.746-20.282-14.952-20.282-14.952c-8.508-45.092-46.103-62.283-46.103-62.283
                            c-7.269-2.02-14.096-7.886-14.909-15.852c-1.062-10.376,6.493-19.649,16.868-20.708c4.093-0.42,5.9-0.013,5.9-0.013
                            c31.597,2.245,70.814,47.885,74.444,83.411C197.203,389.168,198.419,409.188,180.411,411.026z"></path>
                        </svg>
