<?xml version="1.0" encoding="utf-8"?>
<!-- Generator: Adobe Illustrator 16.0.0, SVG Export Plug-In . SVG Version: 6.00 Build 0)  -->
<!DOCTYPE svg PUBLIC "-//W3C//DTD SVG 1.1//EN" "http://www.w3.org/Graphics/SVG/1.1/DTD/svg11.dtd">


<svg version="1.1" class="benefit__icon" xmlns="http://www.w3.org/2000/svg" xmlns:xlink="http://www.w3.org/1999/xlink" width="80px" height="80px" viewBox="0 0 512 512" xml:space="preserve">
                            <path class="st0" fill="#ff4e00" d="M492.052,179.532v0.63c-11.402,2.513-19.948,12.656-19.948,24.812v14.455V405.61
    c0,58.76-47.63,106.39-106.39,106.39H146.286c-58.76,0-106.39-47.63-106.39-106.39V219.429l0,0v-14.455
    c0-12.156-8.545-22.299-19.948-24.812v-0.63C8.929,179.532,0,170.604,0,159.584c0-11.013,8.929-19.948,19.948-19.948h6.649
    c29.377,0,53.195,23.818,53.195,53.194v26.598v165.929v20.253c0,36.721,29.773,66.493,66.494,66.493h20.253h178.922h20.253
    c36.722,0,66.494-29.772,66.494-66.493v-20.253V219.429l0,0v-26.598c0-29.376,23.818-53.194,53.194-53.194h6.649
    c11.02,0,19.948,8.935,19.948,19.948C512,170.604,503.071,179.532,492.052,179.532z M362.39,292.571
    c27.546,0,49.87,22.325,49.87,49.87c0,27.546-22.324,49.87-49.87,49.87s-49.87-22.324-49.87-49.87
    C312.52,314.896,334.844,292.571,362.39,292.571z M362.39,372.363c16.526,0,29.922-13.396,29.922-29.922
    c0-16.525-13.396-29.922-29.922-29.922s-29.922,13.396-29.922,29.922C332.468,358.968,345.863,372.363,362.39,372.363z
     M219.429,342.441c0,27.546-22.325,49.87-49.87,49.87s-49.87-22.324-49.87-49.87c0-27.545,22.325-49.87,49.87-49.87
    S219.429,314.896,219.429,342.441z M139.636,342.441c0,16.526,13.396,29.922,29.922,29.922c16.526,0,29.922-13.396,29.922-29.922
    c0-16.525-13.396-29.922-29.922-29.922C153.032,312.52,139.636,325.916,139.636,342.441z M325.818,259.324
    c-66.151,0-89.485-33.246-152.935-33.246c-77.299,0-86.442,6.649-86.442,6.649s33.247-33.247,86.442-33.247
    s122.181,33.247,152.935,33.247c30.753,0,69.818-9.975,99.74-33.247C425.559,199.48,413.091,259.324,325.818,259.324z
     M312.52,159.584c-22.032,0-39.896-17.864-39.896-39.896c0-22.033,17.864-39.896,39.896-39.896s39.896,17.864,39.896,39.896
    C352.416,141.721,334.552,159.584,312.52,159.584z M312.52,99.74c-11.02,0-19.948,8.935-19.948,19.948
    c0,11.02,8.929,19.948,19.948,19.948s19.948-8.929,19.948-19.948C332.468,108.675,323.539,99.74,312.52,99.74z M179.532,79.792
    c-22.032,0-39.896-17.863-39.896-39.896S157.5,0,179.532,0c22.033,0,39.896,17.863,39.896,39.896S201.565,79.792,179.532,79.792z
     M179.532,19.948c-11.019,0-19.948,8.935-19.948,19.948c0,11.02,8.929,19.948,19.948,19.948c11.02,0,19.948-8.929,19.948-19.948
    C199.48,28.883,190.552,19.948,179.532,19.948z"></path>
                        </svg>
