<?xml version="1.0" encoding="utf-8"?>
<!-- Generator: Adobe Illustrator 16.0.0, SVG Export Plug-In . SVG Version: 6.00 Build 0)  -->
<!DOCTYPE svg PUBLIC "-//W3C//DTD SVG 1.1//EN" "http://www.w3.org/Graphics/SVG/1.1/DTD/svg11.dtd">

<svg version="1.1" class="benefit__icon" xmlns="http://www.w3.org/2000/svg" xmlns:xlink="http://www.w3.org/1999/xlink" width="80px" height="80px" viewBox="0 0 512 512" xml:space="preserve">
                            <path class="st0" fill="#ff4e00" d="M256,512C114.613,512,0,397.387,0,256S114.613,0,256,0s256,114.613,256,256
    S397.387,512,256,512z M256,40.96C137.233,40.96,40.96,137.24,40.96,256S137.233,471.04,256,471.04
    c118.76,0,215.04-96.28,215.04-215.04S374.76,40.96,256,40.96z M395.733,221.867c0,2.473-2.007,4.48-4.48,4.48
    c-0.6,0-1.166-0.127-1.687-0.34l-0.073,0.04c-0.953-0.367-1.819-0.773-2.813-1.113c-11.786-4.073-26.26-6.48-41.933-6.48
    c-16.98,0-32.354,2.94-44.627,7.64L299.96,226c-0.533,0.22-1.113,0.347-1.72,0.347c-2.474,0-4.48-2.007-4.48-4.48
    c0-0.107,0.054-0.187,0.061-0.293c-0.134-1.026-0.273-2.06-0.273-3.12c0-22.62,22.92-40.96,51.2-40.96
    c26.253,0,51.199,31.427,51.199,40.96c0,1.061-0.14,2.094-0.272,3.12C395.68,221.68,395.733,221.76,395.733,221.867z
     M389.12,303.787c0,69.746-59.601,126.293-133.12,126.293c-73.52,0-133.12-56.547-133.12-126.293c0-2.947,0.253-5.834,0.467-8.734
    c34.767,15.961,81.32,25.801,132.653,25.801c51.333,0,97.887-9.84,132.653-25.801C388.866,297.953,389.12,300.84,389.12,303.787z
     M218.24,221.867c0,2.473-2.007,4.48-4.48,4.48c-0.606,0-1.187-0.127-1.72-0.347l-0.16,0.093c-12.273-4.7-27.646-7.64-44.626-7.64
    c-15.673,0-30.147,2.407-41.934,6.48c-0.993,0.34-1.86,0.746-2.813,1.113l-0.074-0.04c-0.52,0.213-1.086,0.34-1.687,0.34
    c-2.473,0-4.48-2.007-4.48-4.48c0-0.107,0.053-0.187,0.06-0.293c-0.133-1.026-0.273-2.06-0.273-3.12c0-9.533,30.28-40.96,51.2-40.96
    c28.28,0,51.2,18.34,51.2,40.96c0,1.061-0.14,2.094-0.273,3.12C218.187,221.68,218.24,221.76,218.24,221.867z"></path>
                        </svg>